HIERARCHY
ROOT Hips
{
	OFFSET 0.000000 103.266502 0.000000
	CHANNELS 6 Xposition Yposition Zposition Xrotation Yrotation Zrotation 
	JOINT Spine
	{
		OFFSET -0.002400 12.777504 0.315300
		CHANNELS 3 Xrotation Yrotation Zrotation
		JOINT Spine1
		{
			OFFSET -0.002067 5.816869 0.032633
			CHANNELS 3 Xrotation Yrotation Zrotation
			JOINT Spine1_split
			{
				OFFSET -0.002067 5.816869 0.032633
				CHANNELS 3 Xrotation Yrotation Zrotation
				JOINT Spine2
				{
					OFFSET -0.002067 5.816869 0.032633
					CHANNELS 3 Xrotation Yrotation Zrotation
					JOINT Neck
					{
						OFFSET -0.003700 21.199493 -0.826900
						CHANNELS 3 Xrotation Yrotation Zrotation
						JOINT Head
						{
							OFFSET 0.000000 20.442200 4.834800
							CHANNELS 3 Xrotation Yrotation Zrotation
							JOINT HeadTop_End
							{
								OFFSET 0.000000 34.668396 4.968400
								CHANNELS 3 Xrotation Yrotation Zrotation
								End Site
								{
									OFFSET 0.000000 0.000000 0.000000
								}
							}
						}
					}
					JOINT LeftShoulder
					{
						OFFSET 3.288150 8.794197 -1.372250
						CHANNELS 3 Xrotation Yrotation Zrotation
						JOINT LeftShoulder_split
						{
							OFFSET 3.288150 8.794197 -1.372250
							CHANNELS 3 Xrotation Yrotation Zrotation
							JOINT LeftArm
							{
								OFFSET 11.953299 -2.279007 -0.146200
								CHANNELS 3 Xrotation Yrotation Zrotation
								JOINT LeftForeArm
								{
									OFFSET 18.448900 0.000000 0.000000
									CHANNELS 3 Xrotation Yrotation Zrotation
									JOINT LeftHand
									{
										OFFSET 29.527798 0.000000 0.000000
										CHANNELS 3 Xrotation Yrotation Zrotation
										JOINT LeftHandThumb1
										{
											OFFSET 10.739754 -2.369614 9.225399
											CHANNELS 3 Xrotation Yrotation Zrotation
											JOINT LeftHandThumb2
											{
												OFFSET 4.926170 -2.844131 2.844125
												CHANNELS 3 Xrotation Yrotation Zrotation
												JOINT LeftHandThumb3
												{
													OFFSET 4.614891 -2.664413 2.664409
													CHANNELS 3 Xrotation Yrotation Zrotation
													JOINT LeftHandThumb4
													{
														OFFSET 4.432465 -2.559082 2.559083
														CHANNELS 3 Xrotation Yrotation Zrotation
														End Site
														{
															OFFSET 0.000000 0.000000 0.000000
														}
													}
												}
											}
										}
										JOINT LeftHandIndex1
										{
											OFFSET 26.467674 0.187653 6.405298
											CHANNELS 3 Xrotation Yrotation Zrotation
											JOINT LeftHandIndex2
											{
												OFFSET 8.792900 0.000000 0.000000
												CHANNELS 3 Xrotation Yrotation Zrotation
												JOINT LeftHandIndex3
												{
													OFFSET 10.075203 0.000000 0.000000
													CHANNELS 3 Xrotation Yrotation Zrotation
													End Site
													{
														OFFSET 0.000000 0.000000 0.000000
													}
												}
											}
										}
										JOINT LeftHandMiddle1
										{
											OFFSET 25.764404 0.000000 0.000000
											CHANNELS 3 Xrotation Yrotation Zrotation
											JOINT LeftHandMiddle2
											{
												OFFSET 9.393974 0.000000 0.000000
												CHANNELS 3 Xrotation Yrotation Zrotation
												JOINT LeftHandMiddle3
												{
													OFFSET 10.771950 0.000000 0.000000
													CHANNELS 3 Xrotation Yrotation Zrotation
													End Site
													{
														OFFSET 0.000000 0.000000 0.000000
													}
												}
											}
										}
										JOINT LeftHandRing1
										{
											OFFSET 24.660927 0.144547 -6.225808
											CHANNELS 3 Xrotation Yrotation Zrotation
											JOINT LeftHandRing2
											{
												OFFSET 9.393799 0.000000 0.000000
												CHANNELS 3 Xrotation Yrotation Zrotation
												JOINT LeftHandRing3
												{
													OFFSET 9.928497 0.000000 0.000000
													CHANNELS 3 Xrotation Yrotation Zrotation
													End Site
													{
														OFFSET 0.000000 0.000000 0.000000
													}
												}
											}
										}
										JOINT LeftHandPinky1
										{
											OFFSET 23.655350 0.125290 -12.815412
											CHANNELS 3 Xrotation Yrotation Zrotation
											JOINT LeftHandPinky2
											{
												OFFSET 8.425102 0.000000 0.000000
												CHANNELS 3 Xrotation Yrotation Zrotation
												JOINT LeftHandPinky3
												{
													OFFSET 8.147003 0.000000 0.000000
													CHANNELS 3 Xrotation Yrotation Zrotation
													End Site
													{
														OFFSET 0.000000 0.000000 0.000000
													}
												}
											}
										}
									}
								}
							}
						}
					}
					JOINT RightShoulder
					{
						OFFSET -3.249400 8.794197 -1.372250
						CHANNELS 3 Xrotation Yrotation Zrotation
						JOINT RightShoulder_split
						{
							OFFSET -3.249400 8.794197 -1.372250
							CHANNELS 3 Xrotation Yrotation Zrotation
							JOINT RightArm
							{
								OFFSET -11.953299 -2.279007 -0.146200
								CHANNELS 3 Xrotation Yrotation Zrotation
								JOINT RightForeArm
								{
									OFFSET -18.448900 0.000000 0.000000
									CHANNELS 3 Xrotation Yrotation Zrotation
									JOINT RightHand
									{
										OFFSET -29.527802 0.000000 0.000000
										CHANNELS 3 Xrotation Yrotation Zrotation
										JOINT RightHandThumb1
										{
											OFFSET -10.739754 -2.369614 9.225399
											CHANNELS 3 Xrotation Yrotation Zrotation
											JOINT RightHandThumb2
											{
												OFFSET -4.926170 -2.844131 2.844125
												CHANNELS 3 Xrotation Yrotation Zrotation
												JOINT RightHandThumb3
												{
													OFFSET -4.614891 -2.664413 2.664409
													CHANNELS 3 Xrotation Yrotation Zrotation
													JOINT RightHandThumb4
													{
														OFFSET -4.432465 -2.559082 2.559083
														CHANNELS 3 Xrotation Yrotation Zrotation
														End Site
														{
															OFFSET 0.000000 0.000000 0.000000
														}
													}
												}
											}
										}
										JOINT RightHandIndex1
										{
											OFFSET -26.467674 0.187653 6.405298
											CHANNELS 3 Xrotation Yrotation Zrotation
											JOINT RightHandIndex2
											{
												OFFSET -8.792900 0.000000 0.000000
												CHANNELS 3 Xrotation Yrotation Zrotation
												JOINT RightHandIndex3
												{
													OFFSET -10.075203 0.000000 0.000000
													CHANNELS 3 Xrotation Yrotation Zrotation
													End Site
													{
														OFFSET 0.000000 0.000000 0.000000
													}
												}
											}
										}
										JOINT RightHandMiddle1
										{
											OFFSET -25.764404 0.000000 0.000000
											CHANNELS 3 Xrotation Yrotation Zrotation
											JOINT RightHandMiddle2
											{
												OFFSET -9.393974 0.000000 0.000000
												CHANNELS 3 Xrotation Yrotation Zrotation
												JOINT RightHandMiddle3
												{
													OFFSET -10.771950 0.000000 0.000000
													CHANNELS 3 Xrotation Yrotation Zrotation
													End Site
													{
														OFFSET 0.000000 0.000000 0.000000
													}
												}
											}
										}
										JOINT RightHandRing1
										{
											OFFSET -24.660927 0.144547 -6.225808
											CHANNELS 3 Xrotation Yrotation Zrotation
											JOINT RightHandRing2
											{
												OFFSET -9.393799 0.000000 0.000000
												CHANNELS 3 Xrotation Yrotation Zrotation
												JOINT RightHandRing3
												{
													OFFSET -9.928497 0.000000 0.000000
													CHANNELS 3 Xrotation Yrotation Zrotation
													End Site
													{
														OFFSET 0.000000 0.000000 0.000000
													}
												}
											}
										}
										JOINT RightHandPinky1
										{
											OFFSET -23.655350 0.125290 -12.815412
											CHANNELS 3 Xrotation Yrotation Zrotation
											JOINT RightHandPinky2
											{
												OFFSET -8.425102 0.000000 0.000000
												CHANNELS 3 Xrotation Yrotation Zrotation
												JOINT RightHandPinky3
												{
													OFFSET -8.147003 0.000000 0.000000
													CHANNELS 3 Xrotation Yrotation Zrotation
													End Site
													{
														OFFSET 0.000000 0.000000 0.000000
													}
												}
											}
										}
									}
								}
							}
						}
					}
				}
			}
		}
	}
	JOINT LeftUpLeg
	{
		OFFSET 11.394100 -6.187798 -0.413800
		CHANNELS 3 Xrotation Yrotation Zrotation
		JOINT LeftLeg
		{
			OFFSET 0.430247 -32.302673 3.732800
			CHANNELS 3 Xrotation Yrotation Zrotation
			JOINT LeftFoot
			{
				OFFSET -0.430247 -48.264931 -6.423300
				CHANNELS 3 Xrotation Yrotation Zrotation
				JOINT LeftToeBase
				{
					OFFSET 4.230900 -16.068199 23.438400
					CHANNELS 3 Xrotation Yrotation Zrotation
					JOINT LeftToe_End
					{
						OFFSET 4.510700 0.695400 19.974600
						CHANNELS 3 Xrotation Yrotation Zrotation
						End Site
						{
							OFFSET 0.000000 0.000000 0.000000
						}
					}
				}
			}
		}
	}
	JOINT RightUpLeg
	{
		OFFSET -11.333700 -6.187798 -0.413800
		CHANNELS 3 Xrotation Yrotation Zrotation
		JOINT RightLeg
		{
			OFFSET -0.430392 -32.302628 3.733000
			CHANNELS 3 Xrotation Yrotation Zrotation
			JOINT RightFoot
			{
				OFFSET 0.430392 -48.264973 -6.423500
				CHANNELS 3 Xrotation Yrotation Zrotation
				JOINT RightToeBase
				{
					OFFSET -4.230900 -16.068199 23.438400
					CHANNELS 3 Xrotation Yrotation Zrotation
					JOINT RightToe_End
					{
						OFFSET -4.510700 0.695400 19.974600
						CHANNELS 3 Xrotation Yrotation Zrotation
						End Site
						{
							OFFSET 0.000000 0.000000 0.000000
						}
					}
				}
			}
		}
	}
}
MOTION
Frames: 4
Frame Time: 0.016667
1.053049 91.451553 -0.616759 9.552096 -61.637212 10.137498 15.067223 -0.299506 -4.269911 5.872809 0.571262 -2.801488 0.000000 0.000000 0.000000 5.868636 0.648865 -2.855438 -3.636316 1.441460 3.747639 -20.003642 54.833127 2.408450 0.000000 -0.000000 0.000001 1.829288 -3.192731 -12.271675 0.000000 0.000000 0.000000 -39.386685 26.350112 -34.911993 0.430045 -46.810158 0.421439 -10.315193 -0.130081 0.363163 40.109903 -15.297150 -0.360494 5.639913 28.097778 11.338773 1.088565 40.896318 22.734006 -0.000000 -0.000002 0.000001 6.882263 2.840027 -61.140493 8.247979 7.640052 -89.897857 -0.000001 0.000000 0.000001 -2.345533 4.688873 -62.655224 8.754157 9.897067 -87.051246 0.000005 -0.000001 0.000001 -9.042489 10.045630 -60.766185 8.523959 9.508866 -66.892940 -0.000000 0.000002 0.000000 -17.946863 14.755017 -51.485918 8.868391 8.667037 -84.812078 -0.000001 0.000002 -0.000002 0.631516 7.257363 8.703784 0.000000 0.000000 0.000000 7.936907 -9.680970 53.430787 -22.866920 36.192175 17.964135 -27.375396 10.434886 -17.812414 -2.346137 -6.100509 10.731420 2.364022 -23.806278 -8.771128 -5.012476 13.984869 5.861550 -0.000000 0.000001 -0.000002 -0.054770 0.532082 0.738712 0.019711 -0.087385 5.078565 0.000001 -0.000000 -0.000002 0.348259 -5.918496 2.583776 1.432625 -4.204218 24.052091 -0.000000 0.000001 0.000002 1.205831 -11.756068 4.154739 1.794828 -3.771854 26.865432 -0.000000 0.000000 0.000001 2.126199 -19.166841 11.319901 3.354806 -2.122213 18.828572 0.000000 0.000000 0.000000 -39.400698 10.446627 24.280528 35.195811 -6.316804 1.197665 -1.671602 -2.669514 -16.851660 -1.836434 -0.000609 -0.000031 0.000000 -0.000004 -0.000000 -33.418278 -17.904048 -33.267283 34.417952 3.035395 -4.029748 -7.713916 1.358059 23.066695 -0.001651 -0.000355 0.000007 0.000000 -0.000000 0.000000 
1.078788 91.457153 -0.619596 8.516124 -61.923520 8.943722 14.988673 -0.295331 -4.251899 5.836664 0.551935 -2.747395 0.000000 0.000000 0.000000 5.832885 0.628932 -2.797343 -3.515840 1.561341 3.707973 -19.681547 55.042213 2.670147 -0.000000 -0.000000 -0.000001 1.808121 -3.150459 -12.416802 0.000000 0.000000 0.000000 -36.014686 24.816599 -34.515128 0.404969 -47.203314 0.405344 -13.147540 -0.038057 2.175005 40.109900 -15.297150 -0.360490 5.639912 28.097776 11.338767 1.088567 40.896318 22.734006 -0.000000 0.000001 0.000000 6.882264 2.840023 -61.140493 8.247976 7.640050 -89.897857 -0.000001 -0.000001 -0.000000 -2.345528 4.688878 -62.655217 8.754156 9.897067 -87.051239 0.000003 -0.000003 0.000000 -9.042489 10.045624 -60.766185 8.523957 9.508866 -66.892933 -0.000003 0.000002 0.000001 -17.946857 14.755017 -51.485915 8.868392 8.667039 -84.812078 -0.000001 0.000003 -0.000003 0.099907 6.784911 8.707333 0.000000 0.000000 0.000000 8.453904 -9.716542 53.843833 -22.782595 36.391391 17.920965 -26.906743 10.541914 -17.555698 -2.229115 -5.644469 10.223973 2.393484 -23.029692 -8.550826 -4.980955 13.814130 5.791553 0.000001 -0.000001 0.000001 -0.031252 0.157255 3.080527 0.067424 -0.504285 7.959856 0.000000 -0.000000 -0.000000 0.376510 -6.306655 4.884751 1.639298 -4.634040 27.021849 -0.000000 0.000001 0.000000 1.537615 -11.799176 6.930012 2.077791 -4.286932 30.313326 -0.000000 0.000001 -0.000000 2.277207 -19.700291 14.604147 3.606964 -2.772444 22.891458 -0.000000 -0.000000 -0.000000 -39.025987 10.404700 24.726229 35.386568 -5.753944 1.241575 -1.795118 -3.288266 -16.956549 -1.836434 -0.000611 -0.000031 0.000000 0.000002 0.000000 -32.994858 -18.362800 -33.097287 34.368020 4.769029 -3.887748 -7.642806 0.172839 22.574561 -0.001651 -0.000355 0.000007 -0.000000 -0.000000 0.000000 
1.094589 91.458641 -0.612103 7.399012 -62.534548 7.642837 14.765274 -0.273663 -4.187484 5.731452 0.497488 -2.601728 0.000000 0.000000 0.000000 5.728706 0.572379 -2.640777 -3.172929 1.885421 3.613002 -19.015356 55.489973 2.614362 0.000000 0.000000 -0.000001 1.753350 -3.032280 -12.822388 0.000000 0.000000 0.000000 -32.213829 23.425693 -33.713520 0.377253 -47.042853 0.374140 -16.387652 -0.524154 3.915351 40.109900 -15.297148 -0.360494 5.639915 28.097776 11.338771 1.088564 40.896314 22.734008 -0.000002 0.000000 0.000000 6.882263 2.840027 -61.140493 8.247976 7.640052 -89.897857 0.000002 -0.000001 0.000000 -2.345528 4.688874 -62.655217 8.754158 9.897064 -87.051239 0.000000 0.000001 -0.000000 -9.042487 10.045625 -60.766185 8.523952 9.508868 -66.892940 0.000000 0.000005 -0.000002 -17.946862 14.755024 -51.485911 8.868389 8.667040 -84.812078 0.000002 -0.000001 0.000001 -1.447329 6.161765 8.633112 0.000000 0.000000 0.000000 9.394072 -10.760416 54.077094 -22.572459 37.039467 17.841298 -25.737422 10.731236 -17.031934 -2.096134 -5.152954 9.668795 2.419511 -22.184267 -8.315901 -4.947196 13.628551 5.715580 0.000001 0.000001 -0.000001 0.010641 -0.298161 5.838092 0.147995 -0.978304 11.261734 0.000001 -0.000000 0.000000 0.435397 -6.778001 7.554070 1.917832 -5.120882 30.524303 -0.000000 0.000001 0.000000 1.924876 -11.837268 10.016860 2.453715 -4.859686 34.305674 0.000000 0.000001 0.000000 2.496658 -20.238861 18.079687 3.985124 -3.472892 27.434975 0.000000 -0.000000 0.000000 -38.610636 10.603298 25.402010 35.670895 -6.000521 1.223442 -1.999766 -3.095081 -16.962374 -1.836434 -0.000611 -0.000031 -0.000000 0.000000 -0.000000 -32.471139 -18.564990 -32.789382 34.196920 4.617970 -3.888905 -7.558584 0.892698 22.533417 -0.001651 -0.000355 0.000007 -0.000000 -0.000000 -0.000000 
1.103621 91.448051 -0.605832 6.178843 -63.362367 6.220903 14.415107 -0.236995 -4.084750 5.567093 0.412695 -2.385938 0.000000 0.000000 0.000000 5.566068 0.484794 -2.409087 -2.647256 2.365249 3.479151 -17.989689 56.103235 2.243568 -0.000000 -0.000000 0.000000 1.672534 -2.851055 -13.443084 0.000000 0.000000 0.000000 -28.045991 22.205741 -32.670482 0.347594 -46.527235 0.330385 -19.859487 -1.433918 5.545875 40.109897 -15.297151 -0.360490 5.639913 28.097776 11.338768 1.088565 40.896314 22.734003 0.000001 -0.000002 0.000001 6.882262 2.840024 -61.140493 8.247978 7.640051 -89.897857 -0.000003 0.000001 -0.000001 -2.345528 4.688871 -62.655224 8.754155 9.897064 -87.051246 -0.000002 -0.000000 -0.000000 -9.042492 10.045627 -60.766185 8.523954 9.508870 -66.892940 -0.000003 -0.000002 0.000001 -17.946857 14.755020 -51.485918 8.868393 8.667037 -84.812078 -0.000001 -0.000001 -0.000000 -3.766295 5.416450 8.450680 0.000000 0.000000 0.000000 10.628847 -12.718374 54.218209 -22.307108 38.229320 17.808332 -24.218153 10.776497 -16.612400 -1.948323 -4.635286 9.073839 2.440889 -21.283363 -8.070746 -4.911598 13.430824 5.634768 -0.000000 0.000003 -0.000001 0.075703 -0.754070 8.595586 0.259687 -1.461734 14.669947 0.000002 0.000000 0.000001 0.518895 -7.250117 10.226000 2.241036 -5.604561 34.164558 -0.000000 -0.000001 -0.000000 2.292857 -11.852359 12.948996 2.872656 -5.404312 38.305145 -0.000000 0.000001 0.000002 2.696874 -20.720407 21.219516 4.399111 -4.103577 31.748181 0.000000 -0.000001 0.000001 -38.177359 10.954712 26.258976 36.016414 -6.268054 1.203661 -2.265536 -2.882112 -16.982736 -1.836434 -0.000619 -0.000031 -0.000000 -0.000001 -0.000000 -31.909356 -18.594451 -32.315370 34.120319 5.413137 -3.824505 -7.453214 0.698845 22.246922 -0.001651 -0.000355 0.000007 -0.000000 -0.000000 0.000000 
